<?xml version="1.0" standalone="no"?>
<!DOCTYPE svg PUBLIC "-//W3C//DTD SVG 20010904//EN"
 "http://www.w3.org/TR/2001/REC-SVG-20010904/DTD/svg10.dtd">
<svg version="1.0" xmlns="http://www.w3.org/2000/svg"
 width="512.000000pt" height="512.000000pt" viewBox="0 0 512.000000 512.000000"
 preserveAspectRatio="xMidYMid meet">

<g transform="translate(0.000000,512.000000) scale(0.100000,-0.100000)"
fill="#000000" stroke="none">
<path d="M2449 4947 c-176 -78 -316 -173 -445 -301 -151 -152 -237 -306 -276
-496 -37 -178 -13 -469 57 -695 13 -43 23 -81 21 -83 -2 -2 -32 17 -65 42
-145 107 -370 214 -537 257 -123 31 -302 32 -426 1 -224 -55 -425 -178 -619
-378 -123 -128 -123 -127 -115 -232 12 -164 64 -364 132 -507 183 -389 510
-581 1029 -603 l150 -7 -69 -49 c-90 -64 -253 -221 -332 -321 -102 -127 -177
-289 -203 -439 -27 -152 -5 -378 54 -552 52 -153 162 -359 207 -388 13 -8 70
-25 128 -38 91 -19 133 -22 310 -22 189 0 213 3 302 27 117 31 248 91 331 151
76 54 188 169 250 257 61 87 146 258 188 381 19 54 36 98 39 98 3 0 18 -39 34
-86 68 -198 182 -397 303 -525 128 -135 281 -226 469 -276 92 -25 114 -27 304
-27 173 0 220 3 300 21 52 12 107 26 123 32 52 20 158 212 222 403 52 155 68
268 62 423 -11 282 -119 492 -378 740 -53 50 -126 113 -163 140 l-68 50 149 7
c517 23 843 214 1028 603 65 137 118 346 131 510 l7 91 -50 59 c-184 221 -435
390 -673 452 -123 33 -304 37 -425 9 -163 -38 -358 -127 -532 -243 -58 -38
-93 -56 -88 -46 22 58 75 294 85 382 17 144 8 345 -20 441 -84 295 -326 556
-665 716 -131 62 -167 65 -266 21z m213 -188 c308 -155 505 -380 563 -643 22
-100 16 -316 -14 -451 -72 -331 -256 -707 -497 -1015 l-59 -75 -7 45 c-4 25
-5 237 -1 471 4 321 3 435 -7 463 -22 68 -110 85 -148 28 -15 -23 -18 -73 -22
-475 l-5 -448 -71 98 c-39 54 -117 151 -173 215 -109 127 -159 214 -224 389
-101 269 -142 580 -101 762 56 247 249 470 546 627 51 27 103 50 116 50 12 0
59 -19 104 -41z m-1480 -1260 c289 -71 638 -318 918 -648 117 -138 266 -344
251 -349 -9 -3 -315 94 -786 249 -66 21 -133 39 -148 39 -38 0 -77 -40 -77
-80 0 -64 21 -74 472 -219 230 -74 415 -137 413 -140 -3 -2 -62 -23 -132 -46
-71 -24 -186 -68 -258 -98 -174 -75 -220 -82 -510 -82 -223 1 -249 3 -368 28
-153 33 -235 64 -330 127 -213 140 -358 404 -407 738 l-12 82 43 48 c154 166
337 287 515 342 141 42 271 45 416 9z m3148 1 c165 -47 320 -142 477 -293
l102 -99 -5 -46 c-36 -316 -168 -591 -352 -738 -237 -188 -669 -252 -1147
-168 -193 33 -577 146 -576 169 0 10 87 40 628 215 231 74 286 96 303 117 24
30 25 54 5 92 -15 30 -33 41 -68 41 -12 0 -211 -61 -442 -135 -230 -74 -420
-133 -421 -132 -1 1 34 52 78 112 43 61 111 164 150 230 77 130 120 180 243
284 207 175 475 321 671 365 93 21 254 15 354 -14z m-1713 -1102 c30 -28 32
-89 3 -118 -60 -60 -154 -10 -141 75 9 60 92 86 138 43z m-299 -245 c-18 -27
-111 -156 -207 -288 -332 -456 -331 -454 -331 -490 0 -46 50 -89 94 -81 17 4
36 12 43 19 6 6 129 173 272 371 l261 359 0 -134 c0 -74 5 -206 12 -295 11
-151 10 -166 -10 -278 -44 -229 -149 -493 -272 -677 -164 -249 -442 -373 -795
-356 -123 6 -223 20 -262 37 -28 12 -112 176 -153 298 -62 186 -75 385 -35
537 88 334 498 691 1043 906 107 42 336 118 360 119 8 0 0 -19 -20 -47z m538
-28 c58 -24 263 -83 383 -110 126 -29 230 -76 376 -172 173 -114 369 -298 461
-433 178 -259 175 -598 -6 -960 -32 -65 -58 -104 -73 -110 -75 -32 -337 -49
-472 -31 -108 14 -263 65 -341 112 -141 85 -256 227 -358 440 -141 295 -206
628 -206 1047 0 183 0 186 19 167 10 -11 141 -189 291 -395 150 -206 278 -378
284 -383 63 -43 156 21 130 90 -8 21 -462 660 -527 741 -12 16 -4 15 39 -3z"/>
</g>
</svg>
